<svg id="e1gTrJSOPpi1" xmlns="http://www.w3.org/2000/svg" xmlns:xlink="http://www.w3.org/1999/xlink" viewBox="0 0 1440 320" shape-rendering="geometricPrecision" text-rendering="geometricPrecision" project-id="8bc32312736e41a78b7c10bcdacddcde" export-id="30fe686aa3d741d884ccaeb33faa55b9" cached="false"><path d="M0,286.939679h91.325028c124.694941,0,145.141563,0,268.674972,0c269.271434-12.424665,197.929529-9.917309,352.198933-98.327374s234.528824-91.757677,367.801067-103.821032c120.007747-11.119211,241.95995,69.943908,300,108.660622L1463.532621,224v96L1380,320c-60,0-180,0-300,0s-240,0-360,0-240,0-360,0-240,0-300,0h-60v-33.060321Z" transform="matrix(1 0 0 1.34394-177.41039-113.694964)" fill="#908d8d" fill-opacity="0.5"/><path d="M0,286.939679h91.325028c124.694941,0,145.141563,0,268.674972,0c209.009283-14.107017,185.476662,5.121564,339.746066-83.288501s248.399887-118.859905,380.253934-118.859905c120-5.3,223.750003,84.92593,293.137033,114.156285L1440,224v96h-60c-60,0-180,0-300,0s-240,0-360,0-240,0-360,0-240,0-300,0h-60v-33.060321Z" transform="matrix(1 0 0 1.34394-153.877769-113.694964)" fill="#fff" fill-opacity="1"/></svg>
