 <svg viewBox="0 0 400 120" preserveAspectRatio="none" className="h-full w-full">
            
              <path
                d="M0,120 C50,60 100,40 150,50 C200,60 250,30 300,40 C350,50 380,70 400,60 L400,120 Z"
                fill="rgba(37, 99, 235, 0.95)"
                className="animate-pulse"
              />
       
              <path
                d="M0,120 C60,80 120,70 180,75 C240,80 300,60 360,65 C380,67 390,70 400,72 L400,120 Z"
                fill="rgba(59, 130, 246, 0.8)"
              />
              
              <path d="M0,120 C80,90 160,85 240,88 C320,91 360,85 400,87 L400,120 Z" fill="rgba(147, 197, 253, 0.6)" />
            </svg>