<svg id="egb3DGF0Sl41" xmlns="http://www.w3.org/2000/svg" xmlns:xlink="http://www.w3.org/1999/xlink" viewBox="0 0 1440 320" shape-rendering="geometricPrecision" text-rendering="geometricPrecision" project-id="8462ea96952a4c888f1b06e85b0a7dbc" export-id="a7ef4ee19d784d9f8df063c40dd7fa17" cached="false"><path d="M0,286.939679h91.325028c128.833522,0,145.141563,0,268.674972,0c261.336353,0,305.413451,7.801909,411.370328-71.68408s188.629672-124.764326,308.629672-130.464326c120-5.3,233.137033,98.156285,293.137033,114.156285L1440,224v96h-60c-60,0-180,0-300,0s-240,0-360,0-240,0-360,0-240,0-300,0h-60v-33.060321Z" transform="matrix(1 0 0 1.34394-167.106462-110.0608)" fill="rgba(185,185,185,0.94)" fill-opacity="0.3"/><path d="M0,286.939679h91.325028c128.833522,0,145.141563,0,268.674972,0c261.336353,0,303.737259-3.190309,411.370328-71.68408s188.629672-124.764326,308.629672-130.464326c120-5.3,233.137033,98.156285,293.137033,114.156285L1440,224v96h-60c-60,0-180,0-300,0s-240,0-360,0-240,0-360,0-240,0-300,0h-60v-33.060321Z" transform="matrix(1 0 0 1.34394-146.772367-110.0608)" fill="#fff" fill-opacity="1"/></svg>
