<svg id="evc8rfxWZJV1" xmlns="http://www.w3.org/2000/svg" xmlns:xlink="http://www.w3.org/1999/xlink" viewBox="0 0 1440 320" shape-rendering="geometricPrecision" text-rendering="geometricPrecision" project-id="8bc32312736e41a78b7c10bcdacddcde" export-id="000cbcbc40eb422b83b31e8e1003068f" cached="false"><path d="M0,286.939679h91.325028c128.833522,0,145.141563,0,268.674972,0c261.336353,0,333.642575,11.628227,411.370328-71.68408s179.745205-125.960768,308.629672-130.464326c120-5.3,233.137033,98.156285,293.137033,114.156285L1440,224v96h-60c-60,0-180,0-300,0s-240,0-360,0-240,0-360,0-240,0-300,0h-60v-33.060321Z" transform="matrix(1 0 0 1.34394-167.106461-110.060799)" fill="rgba(185,185,185,0.94)" fill-opacity="1"/><g transform="translate(477.776276 10.711325)" mask="url(#evc8rfxWZJV5)"><path d="M0,286.939679h91.325028c128.833522,0,145.141563,0,268.674972,0c261.336353,0,288.704161-5.673944,411.370328-71.68408s188.629672-124.764326,308.629672-130.464326c113.875824,4.773407,222.290386,105.317624,293.137033,114.156285L1440,224v96h-60c-60,0-180,0-300,0s-240,0-360,0-240,0-360,0-240,0-300,0h-60v-33.060321Z" transform="matrix(1 0 0 1.34394-624.548618-122.763188)" fill="#412727" fill-opacity="0.3"/><mask id="evc8rfxWZJV5" mask-type="luminance" x="-150%" y="-150%" height="400%" width="400%"><ellipse rx="144" ry="32" transform="matrix(1.17172-.289626 0.502521 2.033016 421.875862 43.48267)" fill="#d2dbed" stroke-width="0"/></mask></g><path d="M0,286.939679h91.325028c128.833522,0,145.141563,0,268.674972,0c261.336353,0,303.737259-3.190309,411.370328-71.68408s188.629672-124.764326,308.629672-130.464326c120-5.3,233.137033,98.156285,293.137033,114.156285L1440,224v96h-60c-60,0-180,0-300,0s-240,0-360,0-240,0-360,0-240,0-300,0h-60v-33.060321Z" transform="matrix(1 0 0 1.34394-146.772369-110.060799)" fill="#fff" fill-opacity="0.3"/></svg>
