<svg id="eFAXvp5CyDt1" xmlns="http://www.w3.org/2000/svg" xmlns:xlink="http://www.w3.org/1999/xlink" viewBox="0 0 1920 1080" shape-rendering="geometricPrecision" text-rendering="geometricPrecision" project-id="415e7657129a4466869519948f7a49f4" export-id="312f67f8b4594b75a4cd265a2a1c3791" cached="false"><path d="M0,200.999796L60,176c58.280331-23.58252,182.597167-44.96981,300-37.3c87.210857,0,192.364703,31.291819,269.637527,68.346553s112.114596,92.104978,524.483374,100.238817c256.383418,6.115576,299.640705,4.622373,299.640705,4.622373v0L1453.761612,320L1380,320c-60,0-180,0-300,0s-240,0-360,0-240,0-360,0-240,0-300,0h-60v-119.000204Z" transform="matrix(-.350403 0 0 1 1196.012709 325.219012)" fill="#fff" fill-opacity="0.3"/><g transform="translate(619.764799 414.269441)" mask="url(#eFAXvp5CyDt5)"><path d="M0,200.999796L60,176c58.280331-23.58252,182.597167-44.96981,300-37.3c87.210857,0,192.364703,31.291819,269.637527,68.346553s112.114596,92.104978,524.483374,100.238817c256.383418,6.115576,299.640705,4.622373,299.640705,4.622373v0L1453.761612,320L1380,320c-60,0-180,0-300,0s-240,0-360,0-240,0-360,0-240,0-300,0h-60v-119.000204Z" transform="matrix(-.350403 0 0 1 576.247929-89.019313)" fill="#8d868b" fill-opacity="0.3"/><mask id="eFAXvp5CyDt5" mask-type="luminance" x="-150%" y="-150%" height="400%" width="400%"><ellipse rx="144" ry="32" transform="matrix(.689108-.213158 0.496815 1.606128 445.597365 88.156853)" fill="#d2dbed" stroke-width="0"/></mask></g><path d="" transform="translate(47.594918 333.90907)" fill="none" stroke="#3f5787" stroke-width="2.88"/></svg>
